<mxfile host="app.diagrams.net" agent="Mozilla/5.0 (Windows NT 10.0; Win64; x64) AppleWebKit/537.36 (KHTML, like Gecko) Chrome/134.0.0.0 Safari/537.36" version="26.1.0">
  <diagram name="Page-1" id="bfe91b75-5d2c-26a0-9c1d-138518896778">
    <mxGraphModel dx="2476" dy="1333" grid="1" gridSize="10" guides="1" tooltips="1" connect="1" arrows="1" fold="1" page="1" pageScale="1" pageWidth="1100" pageHeight="850" background="none" math="0" shadow="0">
      <root>
        <mxCell id="0" />
        <mxCell id="1" parent="0" />
        <mxCell id="7c3789c024ecab99-78" value="Controller Layer" style="rounded=1;whiteSpace=wrap;html=1;shadow=0;comic=0;strokeColor=#036897;strokeWidth=2;fillColor=none;fontFamily=Verdana;fontSize=28;fontColor=#6881B3;align=center;arcSize=11;verticalAlign=top;" parent="1" vertex="1">
          <mxGeometry x="18" y="10" width="1065" height="420" as="geometry" />
        </mxCell>
        <mxCell id="7c3789c024ecab99-2" value="" style="fontColor=#0066CC;verticalAlign=top;verticalLabelPosition=bottom;labelPosition=center;align=center;html=1;fillColor=#CCCCCC;strokeColor=#6881B3;gradientColor=none;gradientDirection=north;strokeWidth=2;shape=mxgraph.networks.pc;rounded=0;shadow=0;comic=0;" parent="1" vertex="1">
          <mxGeometry x="70.00000000000028" y="1390" width="100" height="70" as="geometry" />
        </mxCell>
        <mxCell id="7c3789c024ecab99-3" value="" style="fontColor=#0066CC;verticalAlign=top;verticalLabelPosition=bottom;labelPosition=center;align=center;html=1;fillColor=#CCCCCC;strokeColor=#6881B3;gradientColor=none;gradientDirection=north;strokeWidth=2;shape=mxgraph.networks.pc;rounded=0;shadow=0;comic=0;" parent="1" vertex="1">
          <mxGeometry x="190.00000000000028" y="1390" width="100" height="70" as="geometry" />
        </mxCell>
        <mxCell id="7c3789c024ecab99-4" value="" style="fontColor=#0066CC;verticalAlign=top;verticalLabelPosition=bottom;labelPosition=center;align=center;html=1;fillColor=#CCCCCC;strokeColor=#6881B3;gradientColor=none;gradientDirection=north;strokeWidth=2;shape=mxgraph.networks.pc;rounded=0;shadow=0;comic=0;" parent="1" vertex="1">
          <mxGeometry x="310.0000000000002" y="1390" width="100" height="70" as="geometry" />
        </mxCell>
        <mxCell id="7c3789c024ecab99-5" value="" style="fontColor=#0066CC;verticalAlign=top;verticalLabelPosition=bottom;labelPosition=center;align=center;html=1;fillColor=#CCCCCC;strokeColor=#6881B3;gradientColor=none;gradientDirection=north;strokeWidth=2;shape=mxgraph.networks.pc;rounded=0;shadow=0;comic=0;" parent="1" vertex="1">
          <mxGeometry x="590" y="1400" width="157.14" height="110" as="geometry" />
        </mxCell>
        <mxCell id="MRtCrf8ce73vjxaOb7xW-1" value="Switch Layer" style="rounded=1;whiteSpace=wrap;html=1;shadow=0;comic=0;strokeColor=#036897;strokeWidth=2;fillColor=none;fontFamily=Verdana;fontSize=28;fontColor=#6881B3;align=center;arcSize=11;verticalAlign=top;" vertex="1" parent="1">
          <mxGeometry x="18" y="450" width="1065" height="420" as="geometry" />
        </mxCell>
        <mxCell id="MRtCrf8ce73vjxaOb7xW-2" value="Host Layer" style="rounded=1;whiteSpace=wrap;html=1;shadow=0;comic=0;strokeColor=#036897;strokeWidth=2;fillColor=none;fontFamily=Verdana;fontSize=28;fontColor=#6881B3;align=center;arcSize=11;verticalAlign=top;" vertex="1" parent="1">
          <mxGeometry x="18" y="890" width="1065" height="420" as="geometry" />
        </mxCell>
        <mxCell id="MRtCrf8ce73vjxaOb7xW-17" style="edgeStyle=orthogonalEdgeStyle;rounded=0;orthogonalLoop=1;jettySize=auto;html=1;" edge="1" parent="1" source="MRtCrf8ce73vjxaOb7xW-3" target="MRtCrf8ce73vjxaOb7xW-4">
          <mxGeometry relative="1" as="geometry" />
        </mxCell>
        <mxCell id="MRtCrf8ce73vjxaOb7xW-18" style="edgeStyle=orthogonalEdgeStyle;rounded=0;orthogonalLoop=1;jettySize=auto;html=1;" edge="1" parent="1" source="MRtCrf8ce73vjxaOb7xW-3" target="MRtCrf8ce73vjxaOb7xW-6">
          <mxGeometry relative="1" as="geometry" />
        </mxCell>
        <mxCell id="MRtCrf8ce73vjxaOb7xW-3" value="" style="fontColor=#0066CC;verticalAlign=top;verticalLabelPosition=bottom;labelPosition=center;align=center;html=1;outlineConnect=0;fillColor=#CCCCCC;strokeColor=#6881B3;gradientColor=none;gradientDirection=north;strokeWidth=2;shape=mxgraph.networks.pc;" vertex="1" parent="1">
          <mxGeometry x="471" y="90" width="157.14" height="110" as="geometry" />
        </mxCell>
        <mxCell id="MRtCrf8ce73vjxaOb7xW-19" style="edgeStyle=orthogonalEdgeStyle;rounded=0;orthogonalLoop=1;jettySize=auto;html=1;" edge="1" parent="1" source="MRtCrf8ce73vjxaOb7xW-4" target="MRtCrf8ce73vjxaOb7xW-6">
          <mxGeometry relative="1" as="geometry" />
        </mxCell>
        <mxCell id="MRtCrf8ce73vjxaOb7xW-4" value="" style="fontColor=#0066CC;verticalAlign=top;verticalLabelPosition=bottom;labelPosition=center;align=center;html=1;outlineConnect=0;fillColor=#CCCCCC;strokeColor=#6881B3;gradientColor=none;gradientDirection=north;strokeWidth=2;shape=mxgraph.networks.server;" vertex="1" parent="1">
          <mxGeometry x="230" y="230" width="117" height="130" as="geometry" />
        </mxCell>
        <mxCell id="MRtCrf8ce73vjxaOb7xW-20" style="edgeStyle=orthogonalEdgeStyle;rounded=0;orthogonalLoop=1;jettySize=auto;html=1;" edge="1" parent="1" source="MRtCrf8ce73vjxaOb7xW-6" target="MRtCrf8ce73vjxaOb7xW-4">
          <mxGeometry relative="1" as="geometry" />
        </mxCell>
        <mxCell id="MRtCrf8ce73vjxaOb7xW-6" value="" style="fontColor=#0066CC;verticalAlign=top;verticalLabelPosition=bottom;labelPosition=center;align=center;html=1;outlineConnect=0;fillColor=#CCCCCC;strokeColor=#6881B3;gradientColor=none;gradientDirection=north;strokeWidth=2;shape=mxgraph.networks.server;" vertex="1" parent="1">
          <mxGeometry x="780" y="230" width="117" height="130" as="geometry" />
        </mxCell>
        <mxCell id="MRtCrf8ce73vjxaOb7xW-8" value="" style="fontColor=#0066CC;verticalAlign=top;verticalLabelPosition=bottom;labelPosition=center;align=center;html=1;outlineConnect=0;fillColor=#CCCCCC;strokeColor=#6881B3;gradientColor=none;gradientDirection=north;strokeWidth=2;shape=mxgraph.networks.switch;" vertex="1" parent="1">
          <mxGeometry x="157" y="630" width="166.67" height="50" as="geometry" />
        </mxCell>
        <mxCell id="MRtCrf8ce73vjxaOb7xW-9" value="" style="fontColor=#0066CC;verticalAlign=top;verticalLabelPosition=bottom;labelPosition=center;align=center;html=1;outlineConnect=0;fillColor=#CCCCCC;strokeColor=#6881B3;gradientColor=none;gradientDirection=north;strokeWidth=2;shape=mxgraph.networks.switch;" vertex="1" parent="1">
          <mxGeometry x="360.33" y="630" width="166.67" height="50" as="geometry" />
        </mxCell>
        <mxCell id="MRtCrf8ce73vjxaOb7xW-10" value="" style="fontColor=#0066CC;verticalAlign=top;verticalLabelPosition=bottom;labelPosition=center;align=center;html=1;outlineConnect=0;fillColor=#CCCCCC;strokeColor=#6881B3;gradientColor=none;gradientDirection=north;strokeWidth=2;shape=mxgraph.networks.switch;" vertex="1" parent="1">
          <mxGeometry x="567" y="630" width="166.67" height="50" as="geometry" />
        </mxCell>
        <mxCell id="MRtCrf8ce73vjxaOb7xW-11" value="" style="fontColor=#0066CC;verticalAlign=top;verticalLabelPosition=bottom;labelPosition=center;align=center;html=1;outlineConnect=0;fillColor=#CCCCCC;strokeColor=#6881B3;gradientColor=none;gradientDirection=north;strokeWidth=2;shape=mxgraph.networks.switch;" vertex="1" parent="1">
          <mxGeometry x="777" y="630" width="166.67" height="50" as="geometry" />
        </mxCell>
        <mxCell id="MRtCrf8ce73vjxaOb7xW-12" value="&lt;font face=&quot;Verdana&quot; style=&quot;font-size: 24px; color: rgb(126, 166, 224);&quot;&gt;&lt;b&gt;My Laptop&lt;/b&gt;&lt;/font&gt;" style="text;html=1;align=center;verticalAlign=middle;whiteSpace=wrap;rounded=0;" vertex="1" parent="1">
          <mxGeometry x="467.45" y="210" width="164.25" height="30" as="geometry" />
        </mxCell>
        <mxCell id="MRtCrf8ce73vjxaOb7xW-13" value="&lt;font face=&quot;Verdana&quot; style=&quot;font-size: 24px; color: rgb(126, 166, 224);&quot;&gt;&lt;b&gt;Mininet Server&lt;/b&gt;&lt;/font&gt;" style="text;html=1;align=center;verticalAlign=middle;whiteSpace=wrap;rounded=0;" vertex="1" parent="1">
          <mxGeometry x="50" y="370" width="213.62" height="30" as="geometry" />
        </mxCell>
        <mxCell id="MRtCrf8ce73vjxaOb7xW-14" value="&lt;font face=&quot;Verdana&quot; style=&quot;font-size: 24px; color: rgb(126, 166, 224);&quot;&gt;&lt;b&gt;SDN Controller&lt;/b&gt;&lt;/font&gt;" style="text;html=1;align=center;verticalAlign=middle;whiteSpace=wrap;rounded=0;" vertex="1" parent="1">
          <mxGeometry x="731.6899999999999" y="370" width="213.62" height="30" as="geometry" />
        </mxCell>
        <mxCell id="MRtCrf8ce73vjxaOb7xW-27" value="" style="endArrow=none;html=1;rounded=0;" edge="1" parent="1" source="MRtCrf8ce73vjxaOb7xW-8" target="MRtCrf8ce73vjxaOb7xW-4">
          <mxGeometry width="50" height="50" relative="1" as="geometry">
            <mxPoint x="670" y="540" as="sourcePoint" />
            <mxPoint x="720" y="490" as="targetPoint" />
          </mxGeometry>
        </mxCell>
        <mxCell id="MRtCrf8ce73vjxaOb7xW-28" value="" style="endArrow=none;html=1;rounded=0;" edge="1" parent="1" source="MRtCrf8ce73vjxaOb7xW-9" target="MRtCrf8ce73vjxaOb7xW-4">
          <mxGeometry width="50" height="50" relative="1" as="geometry">
            <mxPoint x="254" y="640" as="sourcePoint" />
            <mxPoint x="290" y="370" as="targetPoint" />
          </mxGeometry>
        </mxCell>
        <mxCell id="MRtCrf8ce73vjxaOb7xW-29" value="" style="endArrow=none;html=1;rounded=0;" edge="1" parent="1" source="MRtCrf8ce73vjxaOb7xW-10" target="MRtCrf8ce73vjxaOb7xW-4">
          <mxGeometry width="50" height="50" relative="1" as="geometry">
            <mxPoint x="264" y="650" as="sourcePoint" />
            <mxPoint x="300" y="380" as="targetPoint" />
          </mxGeometry>
        </mxCell>
        <mxCell id="MRtCrf8ce73vjxaOb7xW-30" value="" style="endArrow=none;html=1;rounded=0;" edge="1" parent="1" source="MRtCrf8ce73vjxaOb7xW-11" target="MRtCrf8ce73vjxaOb7xW-4">
          <mxGeometry width="50" height="50" relative="1" as="geometry">
            <mxPoint x="274" y="660" as="sourcePoint" />
            <mxPoint x="310" y="390" as="targetPoint" />
          </mxGeometry>
        </mxCell>
      </root>
    </mxGraphModel>
  </diagram>
</mxfile>
